<svg width="24" height="24" viewBox="0 0 24 24" fill="none" xmlns="http://www.w3.org/2000/svg">
<path d="M21.7407 19.8749C20.3412 17.4642 18.1012 15.6548 15.4501 14.7937C16.7208 14.038 17.7083 12.886 18.2609 11.5147C18.8135 10.1434 18.9005 8.62856 18.5087 7.20297C18.1168 5.77737 17.2678 4.51986 16.0919 3.62361C14.9161 2.72735 13.4785 2.24194 12.0001 2.24194C10.5216 2.24194 9.08403 2.72735 7.90819 3.62361C6.73235 4.51986 5.88329 5.77737 5.49145 7.20297C5.09961 8.62856 5.18666 10.1434 5.73922 11.5147C6.29179 12.886 7.2793 14.038 8.55007 14.7937C5.89891 15.6548 3.65888 17.4642 2.25944 19.8749C2.20074 19.9601 2.16029 20.0564 2.14063 20.158C2.12097 20.2595 2.12252 20.364 2.14519 20.4649C2.16785 20.5659 2.21115 20.661 2.27235 20.7444C2.33355 20.8277 2.41133 20.8976 2.50081 20.9494C2.59028 21.0013 2.68952 21.0341 2.79228 21.0458C2.89505 21.0575 2.99912 21.0477 3.09795 21.0173C3.19678 20.9868 3.28824 20.9362 3.36659 20.8687C3.44493 20.8012 3.50846 20.7182 3.55319 20.6249C4.41042 19.1436 5.64211 17.9138 7.1247 17.0589C8.60728 16.2039 10.2886 15.7539 12.0001 15.7539C13.7115 15.7539 15.3928 16.2039 16.8754 17.0589C18.358 17.9138 19.5897 19.1436 20.4469 20.6249C20.4917 20.7182 20.5552 20.8012 20.6335 20.8687C20.7119 20.9362 20.8033 20.9868 20.9022 21.0173C21.001 21.0477 21.1051 21.0575 21.2078 21.0458C21.3106 21.0341 21.4098 21.0013 21.4993 20.9494C21.5888 20.8976 21.6666 20.8277 21.7278 20.7444C21.789 20.661 21.8323 20.5659 21.8549 20.4649C21.8776 20.364 21.8792 20.2595 21.8595 20.158C21.8398 20.0564 21.7994 19.9601 21.7407 19.8749ZM6.75007 8.99992C6.75007 7.96157 7.05797 6.94653 7.63485 6.08317C8.21173 5.21982 9.03167 4.54691 9.99098 4.14955C10.9503 3.75219 12.0059 3.64822 13.0243 3.85079C14.0427 4.05337 14.9781 4.55338 15.7124 5.28761C16.4466 6.02183 16.9466 6.95729 17.1492 7.97569C17.3518 8.99409 17.2478 10.0497 16.8504 11.009C16.4531 11.9683 15.7802 12.7883 14.9168 13.3651C14.0535 13.942 13.0384 14.2499 12.0001 14.2499C10.6077 14.2499 9.27232 13.6968 8.28776 12.7122C7.30319 11.7277 6.75007 10.3923 6.75007 8.99992Z" fill="white"/>
</svg>
